<svg width="15" height="15" viewBox="0 0 24 23" fill="none" xmlns="http://www.w3.org/2000/svg">
<path d="M11.4162 15.8305C9.57495 15.8305 8.08266 17.2161 8.08266 18.9259C8.08266 20.6356 9.57495 22.0213 11.4162 22.0213C13.2575 22.0213 14.7498 20.6356 14.7498 18.9259C14.7498 17.2161 13.2575 15.8305 11.4162 15.8305ZM11.4162 6.54412C13.2575 6.54412 14.7498 5.15842 14.7498 3.44867C14.7498 1.73892 13.2575 0.353226 11.4162 0.353226C9.57495 0.353226 8.08266 1.73892 8.08266 3.44867C8.08266 5.15842 9.57495 6.54412 11.4162 6.54412ZM23.1561 10.4134H11.6751H0.111094C0.111094 9.55879 0.111094 11.0114 0.111094 10.4134V11.6583C0.111067 12.528 0.111095 12.0537 0.111094 12.8979H23.1561C23.1561 12.3518 23.1561 12.8158 23.1561 11.9611V10.4134C23.1561 9.55879 23.1561 11.0635 23.1561 10.4134Z" fill="white"/>
</svg>
