<svg width="20" height="21" viewBox="0 0 25 29" fill="none" xmlns="http://www.w3.org/2000/svg">
<path d="M5.86636 12.1411C7.01505 12.1411 8.13795 11.8004 9.09305 11.1623C10.0482 10.5241 10.7926 9.61701 11.2321 8.55575C11.6717 7.4945 11.7867 6.32673 11.5626 5.20011C11.3386 4.07349 10.7854 3.03863 9.97316 2.22638C9.16091 1.41413 8.12604 0.860982 6.99942 0.636883C5.8728 0.412785 4.70503 0.5278 3.64378 0.967386C2.58252 1.40697 1.67546 2.15138 1.03728 3.10648C0.399098 4.06159 0.0584717 5.18448 0.0584717 6.33317C0.0584717 7.87352 0.670373 9.35078 1.75956 10.44C2.84875 11.5292 4.32601 12.1411 5.86636 12.1411ZM5.86636 3.84408C6.35866 3.84408 6.8399 3.99006 7.24923 4.26357C7.65856 4.53707 7.97759 4.92582 8.16599 5.38064C8.35438 5.83546 8.40367 6.33593 8.30763 6.81877C8.21159 7.30161 7.97452 7.74512 7.62642 8.09323C7.27831 8.44133 6.8348 8.6784 6.35196 8.77444C5.86912 8.87048 5.36865 8.82119 4.91383 8.6328C4.459 8.4444 4.07026 8.12537 3.79675 7.71604C3.52325 7.30671 3.37726 6.82547 3.37726 6.33317C3.37726 5.67302 3.63951 5.03991 4.1063 4.57312C4.5731 4.10632 5.20621 3.84408 5.86636 3.84408ZM19.1415 17.1192C17.9928 17.1192 16.8699 17.4599 15.9148 18.0981C14.9597 18.7362 14.2153 19.6433 13.7757 20.7046C13.3362 21.7658 13.2211 22.9336 13.4452 24.0602C13.6693 25.1868 14.2225 26.2217 15.0347 27.0339C15.847 27.8462 16.8818 28.3993 18.0085 28.6234C19.1351 28.8475 20.3029 28.7325 21.3641 28.2929C22.4254 27.8533 23.3324 27.1089 23.9706 26.1538C24.6088 25.1987 24.9494 24.0758 24.9494 22.9271C24.9494 21.3868 24.3375 19.9095 23.2483 18.8203C22.1591 17.7312 20.6819 17.1192 19.1415 17.1192ZM19.1415 25.4162C18.6492 25.4162 18.168 25.2702 17.7587 24.9967C17.3493 24.7232 17.0303 24.3345 16.8419 23.8797C16.6535 23.4248 16.6042 22.9244 16.7003 22.4415C16.7963 21.9587 17.0334 21.5152 17.3815 21.1671C17.7296 20.819 18.1731 20.5819 18.6559 20.4859C19.1388 20.3898 19.6392 20.4391 20.0941 20.6275C20.5489 20.8159 20.9376 21.1349 21.2111 21.5443C21.4846 21.9536 21.6306 22.4348 21.6306 22.9271C21.6306 23.5873 21.3684 24.2204 20.9016 24.6872C20.4348 25.154 19.8017 25.4162 19.1415 25.4162ZM14.1954 11.299C14.0582 11.1616 12.58 11.7609 14.9746 11.1623C13.251 11.5546 15.2884 11.4439 15.0942 11.4439C14.9 11.4439 14.3864 13.9586 13.8205 12.5048C14.3864 14.0954 13.7339 11.7602 13.5968 11.8977L12.3994 13.6937L10.6034 16.1875C10.3296 16.4669 12.3994 16.687 10.6034 16.687C10.603 16.9795 12.3823 15.578 11.8008 16.0884C11.963 16.3317 12.3994 16.0884 10.6034 16.687C10.8736 16.799 19.6138 5.82518 10.6034 16.1875C19.4184 7.12719 15.6504 11.1623 10.6034 16.1875L14.2713 12.5418C14.4088 12.4046 5.74076 19.6256 15.4946 11.4439C4.91336 20.3197 15.4946 11.7829 15.4946 11.5887C15.4946 11.3945 13.895 12.9986 13.8205 12.8192C13.7461 12.6398 14.3329 11.4362 14.1954 11.299Z" fill="black"/>
</svg>
