<svg width="22" height="16" viewBox="0 0 22 16" fill="none" xmlns="http://www.w3.org/2000/svg">
<path d="M1.46534 0.59201C1.10617 0.59201 0.761709 0.85234 0.507737 1.31573C0.253764 1.77912 0.111084 2.40761 0.111084 3.06294C0.111084 3.71827 0.253764 4.34675 0.507737 4.81014C0.761709 5.27353 1.10617 5.53386 1.46534 5.53386H20.4249C20.7841 5.53386 21.1286 5.27353 21.3825 4.81014C21.6365 4.34675 21.7792 3.71827 21.7792 3.06294C21.7792 2.40761 21.6365 1.77912 21.3825 1.31573C21.1286 0.85234 20.7841 0.59201 20.4249 0.59201H1.46534ZM1.46534 10.4757C1.10617 10.4757 0.761709 10.736 0.507737 11.1994C0.253764 11.6628 0.111084 12.2913 0.111084 12.9466C0.111084 13.602 0.253764 14.2305 0.507737 14.6938C0.761709 15.1572 1.10617 15.4176 1.46534 15.4176H20.4249C20.7841 15.4176 21.1286 15.1572 21.3825 14.6938C21.6365 14.2305 21.7792 13.602 21.7792 12.9466C21.7792 12.2913 21.6365 11.6628 21.3825 11.1994C21.1286 10.736 20.7841 10.4757 20.4249 10.4757H1.46534Z" fill="#F8F8F8"/>
</svg>
